<svg width="17" height="17" fill="none" xmlns="http://www.w3.org/2000/svg"><g clip-path="url(#clip0_5402_1808)" fill="#7F7F7F"><path d="M10.621 8.448l5.394 3.41V4.894l-5.394 3.554zM.016 4.894v6.964l5.394-3.41L.016 4.894zm15.001-2.028h-14a.988.988 0 00-.97.851l7.97 5.251 7.97-5.25a.988.988 0 00-.97-.852zM9.705 9.053l-1.415.932a.5.5 0 01-.55 0l-1.415-.933-6.278 3.97a.986.986 0 00.968.845h14a.986.986 0 00.968-.845l-6.278-3.97z"/></g><defs><clipPath id="clip0_5402_1808"><path fill="#fff" transform="translate(.016 .366)" d="M0 0h16v16H0z"/></clipPath></defs></svg>