<svg width="51" height="51" fill="none" xmlns="http://www.w3.org/2000/svg"><g clip-path="url(#clip0_5402_1367)"><path d="M40.948 20.884h-4.811v-3.242c0-.809-.656-1.465-1.465-1.465H1.722c-.808 0-1.464.656-1.464 1.465v26.673c0 .81.656 1.465 1.465 1.465H6.71c1.594 6.238 10.398 6.234 11.99 0h13.114c1.594 6.238 10.398 6.234 11.99 0h4.988c.809 0 1.465-.656 1.465-1.465V30.194c0-5.133-4.177-9.31-9.31-9.31zM12.706 47.557a3.246 3.246 0 01-3.242-3.242c.178-4.301 6.307-4.3 6.484 0a3.246 3.246 0 01-3.242 3.242zm20.501-7.348a6.162 6.162 0 00-1.392 2.641H18.701c-1.595-6.238-10.398-6.234-11.99 0H3.187V19.107h30.02v21.102zm4.603 7.348a3.246 3.246 0 01-3.242-3.242c.178-4.301 6.307-4.3 6.484 0a3.246 3.246 0 01-3.242 3.242zm9.518-4.707h-3.522a6.183 6.183 0 00-5.996-4.707h-1.673v-14.33h3.346v9.52c0 .808.656 1.464 1.465 1.464h6.38v8.053zm0-10.983h-4.915v-7.884c2.814.664 4.915 3.197 4.915 6.211v1.673z" fill="#244D4D"/><path d="M36.242 12.83h3.923c1.944-.077 1.942-2.852 0-2.929h-2.193l.296-1.777h1.897c1.944-.078 1.942-2.853 0-2.93h-1.409l.296-1.777h2.682c1.944-.078 1.942-2.853 0-2.93h-3.922c-.717 0-1.328.518-1.445 1.224l-1.57 9.414a1.465 1.465 0 001.446 1.706z" fill="#222"/><path d="M26.828 12.83h3.923c1.943-.077 1.942-2.852 0-2.929h-2.193l.296-1.777h1.897c1.943-.078 1.942-2.853 0-2.93h-1.409l.296-1.777h2.682c1.944-.078 1.942-2.853 0-2.93h-3.922c-.717 0-1.328.518-1.445 1.224l-1.57 9.414a1.465 1.465 0 001.445 1.706zm-11.225-.02c1.138.19 1.618-.795 1.686-1.203l.24-1.441 2.884 2.338a1.465 1.465 0 001.845-2.276l-1.628-1.32h1.36c.715 0 1.326-.517 1.444-1.224l.916-5.491A1.466 1.466 0 0022.905.487h-5.492c-.716 0-1.327.518-1.445 1.224l-.909 5.454v.006l-.003.012a1.594 1.594 0 00-.009.054l-.648 3.888a1.465 1.465 0 001.204 1.686zm3.051-9.393h2.521l-.427 2.562h-2.521l.427-2.562zM6.974 12.81c1.138.19 1.618-.795 1.686-1.203l.45-2.699h2.028c1.943-.077 1.942-2.853 0-2.93h-1.54l.427-2.561h2.682c1.943-.078 1.942-2.853 0-2.93H8.784c-.716 0-1.327.518-1.445 1.224L5.77 11.125a1.465 1.465 0 001.204 1.686z" fill="#244D4D"/></g><defs><clipPath id="clip0_5402_1367"><path fill="#fff" transform="translate(.258 .472)" d="M0 0h50v50H0z"/></clipPath></defs></svg>