<svg width="15" height="15" fill="none" xmlns="http://www.w3.org/2000/svg"><path d="M7.498 4.496A3 3 0 004.494 7.5a3 3 0 003.004 3.004A3 3 0 0010.503 7.5a3 3 0 00-3.005-3.004zm0 4.957A1.957 1.957 0 015.546 7.5c0-1.075.877-1.953 1.952-1.953 1.076 0 1.953.878 1.953 1.953a1.957 1.957 0 01-1.953 1.953zm3.128-5.78a.7.7 0 100 1.403.7.7 0 00.496-1.198.7.7 0 00-.496-.206zM13.355 7.5c0-.809.007-1.61-.038-2.417-.046-.938-.26-1.77-.945-2.455-.687-.687-1.518-.9-2.455-.945-.809-.045-1.61-.038-2.417-.038-.809 0-1.61-.007-2.417.038-.938.045-1.77.26-2.455.945-.687.687-.9 1.517-.945 2.455-.045.809-.038 1.61-.038 2.417 0 .807-.007 1.61.038 2.417.045.937.26 1.77.945 2.455.687.687 1.517.9 2.455.945.809.045 1.61.038 2.417.038.809 0 1.61.007 2.417-.038.937-.046 1.77-.26 2.455-.945.687-.687.9-1.518.945-2.455.047-.807.038-1.608.038-2.417zm-1.29 3.454a1.861 1.861 0 01-.441.67 1.873 1.873 0 01-.671.443c-.77.306-2.6.238-3.455.238-.854 0-2.685.069-3.455-.236a1.86 1.86 0 01-.671-.443 1.874 1.874 0 01-.442-.67c-.305-.772-.236-2.602-.236-3.456 0-.854-.069-2.685.236-3.456.107-.266.235-.465.442-.67a1.89 1.89 0 01.67-.443c.771-.305 2.602-.236 3.456-.236.854 0 2.686-.069 3.456.236.267.107.466.236.67.442.207.207.336.405.443.671.305.77.236 2.602.236 3.456 0 .854.069 2.684-.237 3.454z" fill="#305F64"/></svg>