<svg width="16" height="17" fill="none" xmlns="http://www.w3.org/2000/svg"><g clip-path="url(#clip0_5402_1466)"><path d="M3.555 9.37l7.12 7.12a.869.869 0 00.619.256.87.87 0 00.619-.256l.524-.524a.876.876 0 000-1.238l-5.979-5.98 5.986-5.985a.87.87 0 00.255-.619.87.87 0 00-.255-.619l-.525-.524A.87.87 0 0011.3.746a.869.869 0 00-.619.255L3.555 8.128a.87.87 0 00-.256.62c0 .236.09.457.256.622z" fill="#666"/></g><defs><clipPath id="clip0_5402_1466"><path fill="#fff" transform="rotate(-180 8 8.373)" d="M0 0h16v16H0z"/></clipPath></defs></svg>