<svg width="11" height="11" fill="none" xmlns="http://www.w3.org/2000/svg"><g clip-path="url(#clip0_5404_1422)"><path d="M5.941 10.062a.586.586 0 01-.386-.145c-.404-.354-.794-.686-1.137-.978l-.002-.002c-1.007-.858-1.877-1.6-2.483-2.33C1.257 5.79.941 5.017.941 4.17c0-.821.282-1.58.794-2.134a2.689 2.689 0 012-.87c.577 0 1.106.182 1.571.542.235.181.448.404.635.663.188-.26.4-.482.636-.663.465-.36.994-.543 1.57-.543.773 0 1.484.31 2.001.87.512.556.793 1.314.793 2.135 0 .846-.315 1.62-.991 2.437-.606.73-1.476 1.472-2.483 2.33-.344.293-.734.626-1.14.98a.587.587 0 01-.386.145zM3.735 1.75a2.11 2.11 0 00-1.57.682c-.411.446-.638 1.063-.638 1.737 0 .712.264 1.348.857 2.063.573.691 1.425 1.418 2.412 2.258l.002.002c.345.294.736.627 1.143.983.409-.357.8-.69 1.146-.985.987-.84 1.839-1.567 2.412-2.258.592-.715.857-1.351.857-2.063 0-.674-.227-1.29-.639-1.737a2.11 2.11 0 00-1.57-.682c-.444 0-.852.141-1.212.42a2.842 2.842 0 00-.676.782.367.367 0 01-.318.18.367.367 0 01-.317-.18 2.84 2.84 0 00-.676-.782 1.943 1.943 0 00-1.213-.42z" fill="#000"/></g><defs><clipPath id="clip0_5404_1422"><path fill="#fff" transform="translate(.941 .618)" d="M0 0h10v10H0z"/></clipPath></defs></svg>