<svg width="24" height="25" fill="none" xmlns="http://www.w3.org/2000/svg"><g clip-path="url(#clip0_5402_1776)" fill="#244D4D"><path d="M10.57.538C4.74.538 0 5.276 0 11.1c0 5.824 4.741 10.562 10.57 10.562 5.827 0 10.568-4.738 10.568-10.562 0-5.824-4.74-10.562-10.569-10.562zm0 19.174c-4.753 0-8.619-3.863-8.619-8.612 0-4.749 3.866-8.612 8.618-8.612 4.752 0 8.618 3.863 8.618 8.612 0 4.749-3.866 8.612-8.618 8.612z"/><path d="M23.712 22.858l-5.593-5.59a.976.976 0 00-1.38 1.378l5.593 5.59a.972.972 0 001.38 0 .974.974 0 000-1.378z"/></g><defs><clipPath id="clip0_5402_1776"><path fill="#fff" transform="translate(0 .52)" d="M0 0h24v24H0z"/></clipPath></defs></svg>