<svg width="51" height="51" fill="none" xmlns="http://www.w3.org/2000/svg"><g clip-path="url(#clip0_5402_1378)"><path d="M47.58 18.19c-.66-2.043-.379-5.11-2.094-7.478-1.728-2.386-4.734-3.065-6.431-4.306-1.68-1.228-3.242-3.901-6.068-4.823-2.745-.896-5.552.32-7.73.32-2.176 0-4.983-1.216-7.729-.32-2.824.921-4.388 3.595-6.067 4.823-1.695 1.24-4.703 1.92-6.431 4.306-1.714 2.366-1.435 5.44-2.094 7.478C2.31 20.13.258 22.457.258 25.472c0 3.017 2.049 5.336 2.678 7.283.66 2.043.379 5.11 2.093 7.477 1.729 2.387 4.735 3.065 6.432 4.307 1.68 1.228 3.242 3.901 6.067 4.823 2.744.895 5.556-.32 7.73-.32 2.171 0 4.99 1.214 7.73.32 2.824-.922 4.387-3.595 6.066-4.823 1.696-1.24 4.704-1.92 6.432-4.306 1.713-2.366 1.435-5.44 2.094-7.478.626-1.94 2.678-4.268 2.678-7.283 0-3.016-2.049-5.335-2.678-7.282zm-3.717 13.364c-.77 2.38-.568 5.044-1.54 6.387-.986 1.361-3.576 1.983-5.575 3.445-1.976 1.445-3.361 3.736-4.972 4.262-1.524.497-4.009-.513-6.518-.513-2.528 0-4.986 1.013-6.518.513-1.61-.526-2.994-2.815-4.973-4.262-1.986-1.453-4.59-2.088-5.574-3.445-.97-1.339-.775-4.021-1.54-6.387-.749-2.318-2.489-4.326-2.489-6.082 0-1.757 1.738-3.758 2.489-6.081.77-2.38.568-5.045 1.54-6.388.985-1.36 3.577-1.984 5.574-3.444 1.983-1.45 3.36-3.736 4.973-4.263 1.523-.496 4.015.513 6.518.513 2.532 0 4.985-1.013 6.518-.513 1.61.526 2.995 2.817 4.973 4.263 1.986 1.453 4.59 2.087 5.573 3.444.97 1.34.775 4.02 1.54 6.388.75 2.318 2.49 4.325 2.49 6.081 0 1.758-1.739 3.758-2.49 6.082zm-9.607-12.35a1.951 1.951 0 010 2.761l-9.776 9.776c-.763.763-2 .763-2.762 0l-5.458-5.458a1.953 1.953 0 112.762-2.762l4.077 4.077 8.395-8.395c.763-.762 2-.762 2.762 0z" fill="#244D4D"/></g><defs><clipPath id="clip0_5402_1378"><path fill="#fff" transform="translate(.258 .472)" d="M0 0h50v50H0z"/></clipPath></defs></svg>