<svg width="11" height="11" fill="none" xmlns="http://www.w3.org/2000/svg"><g clip-path="url(#clip0_5402_1406)"><path d="M8.871 7.103c-.579 0-1.093.28-1.414.714l-2.759-1.41a1.753 1.753 0 00-.057-1.155l2.892-1.737c.323.378.803.619 1.338.619a1.76 1.76 0 001.758-1.758A1.76 1.76 0 008.87.618a1.76 1.76 0 00-1.639 2.394L4.333 4.753a1.754 1.754 0 00-1.321-.6 1.76 1.76 0 00-1.758 1.758A1.757 1.757 0 004.44 6.933L7.192 8.34a1.76 1.76 0 001.679 2.279A1.76 1.76 0 0010.63 8.86a1.76 1.76 0 00-1.76-1.757zm0-5.899c.646 0 1.172.526 1.172 1.172 0 .646-.526 1.172-1.172 1.172A1.173 1.173 0 017.7 2.376c0-.646.526-1.172 1.172-1.172zm-5.86 5.88A1.173 1.173 0 011.84 5.91c0-.646.526-1.172 1.172-1.172.646 0 1.172.526 1.172 1.172 0 .646-.526 1.172-1.172 1.172zm5.86 2.948A1.173 1.173 0 017.7 8.86a1.173 1.173 0 012.344 0c0 .647-.526 1.172-1.172 1.172z" fill="#000"/></g><defs><clipPath id="clip0_5402_1406"><path fill="#fff" transform="translate(.941 .618)" d="M0 0h10v10H0z"/></clipPath></defs></svg>