<svg width="51" height="51" fill="none" xmlns="http://www.w3.org/2000/svg"><g clip-path="url(#clip0_5402_1357)" fill="#244D4D"><path d="M46.497 14.038L46.495 14c-.021-.48-.036-.988-.045-1.553-.04-2.757-2.232-5.038-4.99-5.192-5.748-.32-10.195-2.195-13.995-5.899l-.032-.03a3.2 3.2 0 00-4.35 0l-.032.03c-3.8 3.704-8.247 5.578-13.995 5.9-2.757.153-4.95 2.434-4.99 5.19-.008.563-.023 1.07-.045 1.554l-.002.09c-.112 5.863-.25 13.158 2.19 19.78 1.342 3.642 3.374 6.807 6.04 9.41 3.037 2.962 7.014 5.315 11.821 6.991a3.664 3.664 0 001.188.202 3.593 3.593 0 001.19-.203c4.802-1.679 8.774-4.033 11.808-6.995 2.665-2.603 4.698-5.77 6.04-9.412 2.45-6.641 2.312-13.95 2.2-19.824zm-4.953 18.81C38.97 39.826 33.715 44.62 25.48 47.5a.66.66 0 01-.443 0c-8.245-2.875-13.503-7.665-16.075-14.645-2.25-6.104-2.122-12.801-2.01-18.71l.001-.032c.023-.508.038-1.04.046-1.624a2.355 2.355 0 012.22-2.305c3.253-.182 6.111-.81 8.737-1.922 2.623-1.11 4.952-2.675 7.12-4.784a.27.27 0 01.364 0c2.168 2.11 4.498 3.674 7.12 4.784 2.626 1.112 5.484 1.74 8.737 1.922a2.355 2.355 0 012.22 2.305c.008.588.024 1.12.047 1.624.112 5.915.236 12.617-2.02 18.734z"/><path d="M25.258 13.012c-6.871 0-12.461 5.59-12.461 12.46 0 6.872 5.59 12.462 12.46 12.462 6.871 0 12.461-5.59 12.461-12.461 0-6.87-5.59-12.46-12.46-12.46zm0 21.988c-5.254 0-9.527-4.274-9.527-9.527 0-5.253 4.273-9.527 9.527-9.527 5.252 0 9.526 4.274 9.526 9.527 0 5.253-4.274 9.527-9.526 9.527z"/><path d="M28.84 21.604l-5.788 5.788-1.571-1.57a1.467 1.467 0 00-2.075 2.073l2.609 2.609a1.462 1.462 0 002.074 0l6.825-6.825a1.467 1.467 0 00-2.075-2.075z"/></g><defs><clipPath id="clip0_5402_1357"><path fill="#fff" transform="translate(.258 .472)" d="M0 0h50v50H0z"/></clipPath></defs></svg>