<svg width="17" height="17" fill="none" xmlns="http://www.w3.org/2000/svg"><g clip-path="url(#clip0_5402_1612)"><path d="M16.892 6.182a.849.849 0 00-.732-.585l-4.618-.419L9.716.904a.85.85 0 00-1.564 0L6.326 5.179l-4.62.42a.85.85 0 00-.482 1.487l3.49 3.062-1.029 4.534a.85.85 0 001.265.919l3.984-2.381 3.982 2.38a.85.85 0 001.265-.919l-1.03-4.533 3.491-3.06a.85.85 0 00.25-.905z" fill="#FFB624"/></g><defs><clipPath id="clip0_5402_1612"><path fill="#fff" transform="translate(.934 .045)" d="M0 0h16v16H0z"/></clipPath></defs></svg>