<svg width="13" height="11" fill="none" xmlns="http://www.w3.org/2000/svg"><path d="M12.123 2.112c-.428.19-.89.318-1.373.376a2.397 2.397 0 001.052-1.322 4.786 4.786 0 01-1.518.58 2.39 2.39 0 00-4.073 2.18 6.785 6.785 0 01-4.927-2.498 2.39 2.39 0 00.74 3.191A2.373 2.373 0 01.94 4.32v.03a2.39 2.39 0 001.917 2.344 2.382 2.382 0 01-1.08.042 2.393 2.393 0 002.233 1.66 4.796 4.796 0 01-3.538.99 6.76 6.76 0 003.663 1.073c4.397 0 6.801-3.642 6.801-6.8 0-.105-.002-.208-.007-.31a4.847 4.847 0 001.193-1.237z" fill="#305F64"/></svg>