<svg width="25" height="25" fill="none" xmlns="http://www.w3.org/2000/svg"><g clip-path="url(#clip0_5402_1482)" fill="#666"><path d="M4.922 12.05h6.14c.54 0 1.033.203 1.407.538a2.1 2.1 0 011.406-.539h6.14V4.51a.705.705 0 00-.695-.71H5.625c-.4 0-.703.328-.703.71v7.54zm8.25 2.108V15.8h6.844v-2.344h-6.141a.704.704 0 00-.703.703z"/><path d="M22.196 8.675a.807.807 0 00-.774.81v7.017a.703.703 0 01-.703.703h-16.5a.703.703 0 01-.703-.703V9.486a.807.807 0 00-.774-.81 2.202 2.202 0 00-2.273 2.201v7.219a2.11 2.11 0 002.11 2.11h.937v.776c0 .379.29.705.669.723a.703.703 0 00.737-.703v-.797h15.094v.777c0 .379.29.705.669.723a.703.703 0 00.737-.703v-.797h.937a2.11 2.11 0 002.11-2.11v-7.178c0-1.298-1.032-2.28-2.273-2.242z"/><path d="M11.766 14.158a.704.704 0 00-.704-.703h-6.14V15.8h6.844v-1.64z"/></g><defs><clipPath id="clip0_5402_1482"><path fill="#fff" transform="translate(.469 .752)" d="M0 0h24v24H0z"/></clipPath></defs></svg>