<svg width="25" height="25" fill="none" xmlns="http://www.w3.org/2000/svg"><g clip-path="url(#clip0_5402_1493)" fill="#666"><path d="M.473 24.752h9.886v-5.669H.473v5.67zm2.162-4.2h5.608v1.405H2.635V20.55zM.473 17.677h9.886v-5.575H.473v5.575zm2.162-4.08h5.608v1.406H2.635v-1.405zm9.131 11.155h12.697v-12.65H11.766v12.65zm8.433-11.154h1.406v1.44h-1.406v-1.44zm-2.811 0h1.406v1.44h-1.406v-1.44zm-2.811 0h1.405v1.44h-1.405v-1.44zm0 2.697h7.028v5.646h-7.028v-5.646zM20.2 3.993V.753h-4.218v3.242l-4.216 2.811v2.485h12.697V6.804l-4.264-2.811z"/></g><defs><clipPath id="clip0_5402_1493"><path fill="#fff" transform="translate(.469 .752)" d="M0 0h24v24H0z"/></clipPath></defs></svg>