<svg width="25" height="25" fill="none" xmlns="http://www.w3.org/2000/svg"><g clip-path="url(#clip0_5402_1506)" fill="#666"><path d="M20.091 10.31a.508.508 0 00.509-.508V8.17a.509.509 0 00-.509-.508l-.724.004-2.375 2.644h3.1zm-15.246 0h3.123L5.552 7.662h-.707a.509.509 0 00-.51.508v1.632c0 .28.229.508.51.508zm7.916 2.623l4.713-5.271H7.464l4.791 5.273a.34.34 0 00.506-.002zm1.324 7.418h-.876v-5.919c-.21.122-.45.188-.697.189h-.006c-.25 0-.491-.066-.703-.189v5.919h-.955a.703.703 0 100 1.406h3.237a.703.703 0 100-1.406z"/><path d="M6.398 12.267H1.875V3.932a.703.703 0 00-1.406 0V21.11a.703.703 0 101.406 0v-5.252h5.113v5.252a.703.703 0 101.406 0v-6.848c0-1.1-.895-1.995-1.996-1.995zm17.368-9.039a.703.703 0 00-.703.704v8.335h-4.419c-1.1 0-1.996.895-1.996 1.995v6.848a.703.703 0 001.407 0v-5.253h5.008v5.253a.703.703 0 001.406 0V3.932a.703.703 0 00-.703-.704z"/></g><defs><clipPath id="clip0_5402_1506"><path fill="#fff" transform="translate(.469 .521)" d="M0 0h24v24H0z"/></clipPath></defs></svg>