<svg width="25" height="25" fill="none" xmlns="http://www.w3.org/2000/svg"><g clip-path="url(#clip0_5402_1518)" fill="#fff"><path d="M24.469 7.203V2.515c0-.904-.736-1.64-1.64-1.64H14.39c-.905 0-1.641.736-1.641 1.64v4.688c0 .904.736 1.64 1.64 1.64h1.913l-.352 1.407h-3.935l-.143-3.143a2.106 2.106 0 00-2.107-2.014H5.89c-1.13 0-2.056.885-2.108 2.014L3.64 10.25H1.17a.703.703 0 00-.702.703V23.14a.703.703 0 001.406 0v-8.672h1.598c.051.58.294 1.119.703 1.547a2.55 2.55 0 001.543.777v1.192c0 .825.612 1.51 1.406 1.624v1.69l-2.771.791a.703.703 0 00-.51.676v1.407a.703.703 0 001.406 0v-.876l1.875-.536v.943a.703.703 0 001.406 0v-.943l1.875.536v.876a.703.703 0 001.406 0v-1.407a.703.703 0 00-.51-.676l-2.77-.792v-1.69a1.643 1.643 0 001.405-1.623v-1.192a2.551 2.551 0 001.543-.777c.41-.428.652-.968.703-1.547h1.505v8.672a.703.703 0 001.406 0v-2.11h7.969v2.11a.703.703 0 001.406 0V10.953a.703.703 0 00-.703-.703h-2.498l-.352-1.407h1.912c.905 0 1.64-.736 1.64-1.64zm-20.956 5.86H1.875v-1.407h1.702l-.064 1.406zm5.018 4.921c0 .13-.105.234-.234.234h-.938a.235.235 0 01-.234-.234v-1.172h1.406v1.172zm1.932-2.94a1.162 1.162 0 01-.847.362H6.04c-.323 0-.624-.129-.847-.362a1.162 1.162 0 01-.323-.863l.318-7.01a.702.702 0 01.703-.671h3.875c.376 0 .685.294.702.67l.319 7.01c.014.324-.1.63-.324.864zm12.6 4.58h-7.97v-5.156h7.97v5.157zm0-7.968v1.406h-10.92l-.064-1.406h10.983zM17.4 10.25l.351-1.407h1.715l.351 1.407H17.4zm-3.01-2.813a.235.235 0 01-.235-.234V2.515c0-.129.105-.234.235-.234h8.437c.13 0 .235.105.235.234v4.688a.235.235 0 01-.235.234H14.39z"/><path d="M17.672 17.28h2.812a.703.703 0 000-1.405h-2.812a.703.703 0 000 1.406z"/></g><defs><clipPath id="clip0_5402_1518"><path fill="#fff" transform="translate(.469 .875)" d="M0 0h24v24H0z"/></clipPath></defs></svg>