<svg width="25" height="25" fill="none" xmlns="http://www.w3.org/2000/svg"><g clip-path="url(#clip0_5402_1528)" fill="#666"><path d="M2.459 13.514h20.016a1.494 1.494 0 100-2.988H2.46a1.494 1.494 0 000 2.988zm11.504-6.21a.791.791 0 00-.791.791V9.12h6.119V8.095a.792.792 0 00-.79-.79h-4.539z"/><path d="M4.24 8.095a2.2 2.2 0 012.196-2.197h4.538c.576 0 1.101.224 1.494.588a2.188 2.188 0 011.493-.588H18.5a2.2 2.2 0 012.197 2.197V9.12h2.282V4.277c0-.825-.669-1.494-1.493-1.494H3.45c-.825 0-1.494.669-1.494 1.494V9.12h2.282V8.095z"/><path d="M6.44 7.304a.792.792 0 00-.792.791V9.12h6.12V8.095a.792.792 0 00-.791-.79H6.439zM.469 14.92v6.47h1.406v-2.564h21.188v2.564h1.406v-6.47h-24z"/></g><defs><clipPath id="clip0_5402_1528"><path fill="#fff" transform="translate(.469 .086)" d="M0 0h24v24H0z"/></clipPath></defs></svg>